<svg width="80" height="80" viewBox="0 0 80 80" fill="none" xmlns="http://www.w3.org/2000/svg">
<path d="M20.8401 41.5899C21.1055 41.3236 21.4208 41.1123 21.768 40.9682C22.1151 40.824 22.4874 40.7498 22.8633 40.7498C23.2392 40.7498 23.6115 40.824 23.9586 40.9682C24.3058 41.1123 24.6212 41.3236 24.8865 41.5899L37.1424 53.8458L37.1424 18.8562C37.1424 18.0987 37.4433 17.3722 37.979 16.8365C38.5146 16.3009 39.2411 15.9999 39.9987 15.9999C40.7562 15.9999 41.4827 16.3009 42.0184 16.8365C42.554 17.3722 42.8549 18.0987 42.8549 18.8562L42.8549 53.8458L55.1156 41.5899C55.6521 41.0533 56.3799 40.7519 57.1388 40.7519C57.8976 40.7519 58.6254 41.0533 59.162 41.5899C59.6985 42.1265 60 42.8543 60 43.6131C60 44.372 59.6985 45.0997 59.162 45.6363L42.0242 62.774C41.7589 63.0403 41.4436 63.2516 41.0964 63.3958C40.7492 63.5399 40.377 63.6141 40.001 63.6141C39.6251 63.6141 39.2529 63.5399 38.9057 63.3958C38.5585 63.2516 38.2432 63.0403 37.9778 62.774L20.8401 45.6363C20.5738 45.371 20.3625 45.0556 20.2184 44.7085C20.0742 44.3613 20 43.989 20 43.6131C20 43.2372 20.0742 42.8649 20.2184 42.5178C20.3625 42.1706 20.5738 41.8553 20.8401 41.5899Z" fill="#9FAAC4"/>
</svg>
