<svg width="60" height="60" viewBox="0 0 60 60" fill="none" xmlns="http://www.w3.org/2000/svg">
<path d="M31.9525 5.9375C31 4.75 29 4.75 28.0475 5.9375L8.0475 30.9375C7.7541 31.3055 7.57043 31.7488 7.51758 32.2165C7.46473 32.6842 7.54485 33.1573 7.74874 33.5815C7.95262 34.0058 8.27201 34.3639 8.67022 34.6148C9.06843 34.8657 9.52933 34.9992 10 35H20V52.5C20 53.163 20.2634 53.7989 20.7322 54.2678C21.2011 54.7366 21.837 55 22.5 55H37.5C38.163 55 38.7989 54.7366 39.2678 54.2678C39.7366 53.7989 40 53.163 40 52.5V35H50C50.4707 34.9992 50.9316 34.8657 51.3298 34.6148C51.728 34.3639 52.0474 34.0058 52.2513 33.5815C52.4551 33.1573 52.5353 32.6842 52.4824 32.2165C52.4296 31.7488 52.2459 31.3055 51.9525 30.9375L31.9525 5.9375ZM37.5 30H35V50H25V30H15.2025L30 11.5025L44.7975 30H37.5Z" fill="#9FAAC4"/>
</svg>
