<svg width="80" height="80" viewBox="0 0 80 80" fill="none" xmlns="http://www.w3.org/2000/svg">
<path d="M45.2687 13.9375C43.72 8.6875 36.28 8.6875 34.7312 13.9375L34.3562 15.2125C34.1248 15.9985 33.7204 16.7227 33.1727 17.332C32.625 17.9414 31.9478 18.4204 31.1909 18.734C30.4339 19.0476 29.6164 19.1877 28.7982 19.1442C27.98 19.1007 27.1819 18.8746 26.4625 18.4825L25.3 17.845C20.4887 15.2275 15.2275 20.4888 17.8487 25.2962L18.4825 26.4625C20.155 29.5375 18.5687 33.3662 15.2125 34.3562L13.9375 34.7312C8.6875 36.28 8.6875 43.72 13.9375 45.2687L15.2125 45.6438C15.9985 45.8752 16.7227 46.2796 17.332 46.8273C17.9414 47.375 18.4204 48.0522 18.734 48.8091C19.0476 49.5661 19.1877 50.3836 19.1442 51.2018C19.1007 52.02 18.8746 52.8181 18.4825 53.5375L17.845 54.7C15.2275 59.5113 20.4888 64.7725 25.2962 62.1512L26.4625 61.5175C27.1819 61.1254 27.98 60.8993 28.7982 60.8558C29.6164 60.8123 30.4339 60.9524 31.1909 61.266C31.9478 61.5796 32.625 62.0586 33.1727 62.668C33.7204 63.2773 34.1248 64.0015 34.3562 64.7875L34.7312 66.0625C36.28 71.3125 43.72 71.3125 45.2687 66.0625L45.6438 64.7875C45.8752 64.0015 46.2796 63.2773 46.8273 62.668C47.375 62.0586 48.0522 61.5796 48.8091 61.266C49.5661 60.9524 50.3836 60.8123 51.2018 60.8558C52.02 60.8993 52.8181 61.1254 53.5375 61.5175L54.7 62.155C59.5113 64.7725 64.7725 59.5112 62.1512 54.7037L61.5175 53.5375C61.1254 52.8181 60.8993 52.02 60.8558 51.2018C60.8123 50.3836 60.9524 49.5661 61.266 48.8091C61.5796 48.0522 62.0586 47.375 62.668 46.8273C63.2773 46.2796 64.0015 45.8752 64.7875 45.6438L66.0625 45.2687C71.3125 43.72 71.3125 36.28 66.0625 34.7312L64.7875 34.3562C64.0015 34.1248 63.2773 33.7204 62.668 33.1727C62.0586 32.625 61.5796 31.9478 61.266 31.1909C60.9524 30.4339 60.8123 29.6164 60.8558 28.7982C60.8993 27.98 61.1254 27.1819 61.5175 26.4625L62.155 25.3C64.7725 20.4887 59.5112 15.2275 54.7037 17.8487L53.5375 18.4825C52.8181 18.8746 52.02 19.1007 51.2018 19.1442C50.3836 19.1877 49.5661 19.0476 48.8091 18.734C48.0522 18.4204 47.375 17.9414 46.8273 17.332C46.2796 16.7227 45.8752 15.9985 45.6438 15.2125L45.2687 13.9375ZM40 50.9875C37.0859 50.9875 34.2912 49.8299 32.2307 47.7693C30.1701 45.7088 29.0125 42.9141 29.0125 40C29.0125 37.0859 30.1701 34.2912 32.2307 32.2307C34.2912 30.1701 37.0859 29.0125 40 29.0125C42.9131 29.0125 45.7068 30.1697 47.7667 32.2296C49.8265 34.2894 50.9837 37.0832 50.9837 39.9963C50.9837 42.9093 49.8265 45.7031 47.7667 47.7629C45.7068 49.8228 42.9131 50.98 40 50.98V50.9875Z" fill="#9FAAC4"/>
</svg>
