<svg width="60" height="60" viewBox="0 0 60 60" fill="none" xmlns="http://www.w3.org/2000/svg">
<path d="M28.0475 54.0625C29 55.25 31 55.25 31.9525 54.0625L51.9525 29.0625C52.2459 28.6945 52.4296 28.2512 52.4824 27.7835C52.5353 27.3158 52.4551 26.8427 52.2513 26.4185C52.0474 25.9942 51.728 25.6361 51.3298 25.3852C50.9316 25.1343 50.4707 25.0008 50 25H40L40 7.5C40 6.83696 39.7366 6.20107 39.2678 5.73223C38.7989 5.26339 38.163 5 37.5 5L22.5 5C21.837 5 21.2011 5.26339 20.7322 5.73223C20.2634 6.20107 20 6.83696 20 7.5V25H10C9.52934 25.0008 9.06844 25.1343 8.67022 25.3852C8.27201 25.6361 7.95262 25.9942 7.74874 26.4185C7.54485 26.8427 7.46473 27.3158 7.51758 27.7835C7.57043 28.2512 7.7541 28.6945 8.0475 29.0625L28.0475 54.0625ZM22.5 30H25L25 10H35L35 30L44.7975 30L30 48.4975L15.2025 30H22.5Z" fill="#9FAAC4"/>
</svg>
