<svg width="60" height="60" viewBox="0 0 60 60" fill="none" xmlns="http://www.w3.org/2000/svg">
<path d="M12.5 24.5C12.5 22.3575 12.5 20.9025 12.595 19.7775C12.6825 18.6825 12.845 18.12 13.045 17.73L8.59 15.46C7.9725 16.6725 7.725 17.965 7.61 19.37C7.5 20.745 7.5 22.44 7.5 24.5H12.5ZM12.5 30V24.5H7.5V30H12.5ZM7.5 30V42.5H12.5V30H7.5ZM7.5 42.5V49.785H12.5V42.5H7.5ZM7.5 49.785C7.5 53.0125 11.405 54.63 13.6875 52.3475L10.1525 48.8125C10.3448 48.6201 10.5898 48.4891 10.8566 48.436C11.1234 48.3829 11.3999 48.4101 11.6513 48.5142C11.9026 48.6183 12.1173 48.7947 12.2684 49.0209C12.4195 49.2471 12.5001 49.513 12.5 49.785H7.5ZM13.6875 52.3475L21.0375 45L17.5 41.465L10.1525 48.8125L13.6875 52.3475ZM38 40H21.035V45H38V40ZM44.77 39.455C44.38 39.655 43.82 39.8175 42.7225 39.905C41.5975 39.9975 40.1425 40 38 40V45C40.06 45 41.7525 45 43.13 44.89C44.535 44.775 45.8275 44.5275 47.04 43.91L44.77 39.455ZM46.955 37.27C46.4756 38.2108 45.7108 38.9756 44.77 39.455L47.04 43.91C48.9215 42.9513 50.4513 41.4215 51.41 39.54L46.955 37.27ZM47.5 30.5C47.5 32.6425 47.5 34.0975 47.405 35.2225C47.3175 36.3175 47.155 36.88 46.955 37.27L51.41 39.54C52.0275 38.3275 52.275 37.035 52.39 35.63C52.5025 34.255 52.5 32.56 52.5 30.5H47.5ZM47.5 24.5V30.5H52.5V24.5H47.5ZM46.955 17.73C47.155 18.12 47.3175 18.68 47.405 19.7775C47.5 20.9025 47.5 22.3575 47.5 24.5H52.5C52.5 22.44 52.5 20.7475 52.39 19.37C52.275 17.965 52.0275 16.6725 51.41 15.46L46.955 17.73ZM44.77 15.545C45.7108 16.0244 46.4756 16.7892 46.955 17.73L51.41 15.46C50.4513 13.5785 48.9215 12.0487 47.04 11.09L44.77 15.545ZM38 15C40.1425 15 41.5975 15 42.7225 15.095C43.8175 15.1825 44.38 15.345 44.77 15.545L47.04 11.09C45.8275 10.4725 44.535 10.225 43.13 10.11C41.755 10 40.06 10 38 10V15ZM22 15H38V10H22V15ZM15.23 15.545C15.62 15.345 16.18 15.1825 17.2775 15.095C18.4025 15 19.8575 15 22 15V10C19.94 10 18.2475 10 16.87 10.11C15.465 10.225 14.1725 10.4725 12.96 11.09L15.23 15.545ZM13.045 17.73C13.5244 16.7892 14.2892 16.0244 15.23 15.545L12.96 11.09C11.0785 12.0487 9.54872 13.5785 8.59 15.46L13.045 17.73ZM21.035 45V40C19.709 40.0003 18.4375 40.5273 17.5 41.465L21.035 45Z" fill="#A8B3CF"/>
<path d="M20 22.5H40M20 32.5H32.5" stroke="#A8B3CF" stroke-width="2" stroke-linecap="round" stroke-linejoin="round"/>
</svg>
