<svg width="130" height="155" viewBox="0 0 130 155" fill="none" xmlns="http://www.w3.org/2000/svg">
<g clip-path="url(#clip0_212_312)">
<path d="M34.1667 73.1267V86.8734M46.5 62.8167V97.1834M58.8334 50.79V109.21M71.1667 63.7734V96.2267M83.5 71.8867V88.1134M95.8334 76.5634V83.4367" stroke="white" stroke-width="3" stroke-linecap="round" stroke-linejoin="round"/>
<path d="M20.7827 51.091L60.7827 23.891C63.3279 22.1603 66.6721 22.1603 69.2173 23.891L109.217 51.091C111.271 52.4874 112.5 54.8097 112.5 57.293V80V99.0273C112.5 101.585 111.197 103.966 109.043 105.344L69.0429 130.944C66.5784 132.522 63.4216 132.522 60.9571 130.944L20.9571 105.344C18.8031 103.966 17.5 101.585 17.5 99.0273V80V57.293C17.5 54.8097 18.7292 52.4874 20.7827 51.091Z" stroke="#38A289" stroke-width="5"/>
<path d="M5.78267 43.291L60.7827 5.89103C63.3279 4.16029 66.6721 4.16029 69.2173 5.89103L124.217 43.291C126.271 44.6874 127.5 47.0097 127.5 49.493V80.6V106.977C127.5 109.535 126.197 111.916 124.043 113.294L69.0429 148.494C66.5784 150.072 63.4216 150.072 60.9571 148.494L5.95709 113.294C3.8031 111.916 2.5 109.535 2.5 106.977V80.6V49.493C2.5 47.0097 3.72918 44.6874 5.78267 43.291Z" stroke="#00FFC3" stroke-width="5"/>
</g>
<defs>
<clipPath id="clip0_212_312">
<rect width="130" height="154.05" fill="white"/>
</clipPath>
</defs>
</svg>
